<svg xmlns="http://www.w3.org/2000/svg" xmlns:xlink="http://www.w3.org/1999/xlink" viewBox="0 0 500 500"><defs><clipPath id="freepik--clip-path--inject-33"><path d="M374.61,198.93c-4.62.54-16.59,8.7-17.41,9.52s-4.08,2.72-5.44,3.81c0,0-28,17.41-30.47,19s-7.34,4.89-7.07,6-14.42,25-14.42,25-4.35,5.71-.27,10.88,7.89,1.63,9.79.55,16.87-15.24,16.87-15.24L340,291.45s19.12-12.82,39.52-12l-13.6-53.32s18.77-14.15,19.31-19S379.24,198.38,374.61,198.93Z" style="fill:#fff;stroke:#263238;stroke-linecap:round;stroke-linejoin:round"></path></clipPath></defs><g id="freepik--background-simple--inject-33"><path d="M409.25,271.27c-4.36-23-18.45-39.8-36.79-53.31-13.09-9.65-23.72-22.27-32.84-35.71-12.74-18.79-23.31-42.3-43.91-53.92-29.3-16.52-57.47,5.95-81.22,21.8-12.46,8.32-25.75,17-40.83,19.4-21.5,3.44-43.33-6-64.65-.32A33.87,33.87,0,0,0,97,172s-27,9-35,55S61,342,99,382s68,45,88,46c.55,0,1.09,0,1.63,0,13.27,2,29,1,47-4,57.88-16.08,54.66-53.06,106.11-61.1S418.09,317.89,409.25,271.27Z" style="fill:#FF725E"></path><path d="M409.25,271.27c-4.36-23-18.45-39.8-36.79-53.31-13.09-9.65-23.72-22.27-32.84-35.71-12.74-18.79-23.31-42.3-43.91-53.92-29.3-16.52-57.47,5.95-81.22,21.8-12.46,8.32-25.75,17-40.83,19.4-21.5,3.44-43.33-6-64.65-.32A33.87,33.87,0,0,0,97,172s-27,9-35,55S61,342,99,382s68,45,88,46c.55,0,1.09,0,1.63,0,13.27,2,29,1,47-4,57.88-16.08,54.66-53.06,106.11-61.1S418.09,317.89,409.25,271.27Z" style="fill:#fff;opacity:0.7000000000000001"></path></g><g id="freepik--Plants--inject-33"><path d="M222.12,91.64s4.58-3.62,5.76-5.94c1-2,1.72-4.78.69-6.88A3.93,3.93,0,0,0,223,77c-2.83,1.76-3.13,7.74-2.41,10.62C220.65,87.9,222.07,91.68,222.12,91.64Z" style="fill:#FF725E"></path><path d="M179.75,121.79c.19.18,3.46,2.55,3.47,2.49s1.83-5.55,1.53-8.13c-.26-2.2-1.2-4.94-3.22-6.12a3.92,3.92,0,0,0-5.63,1.58C174.51,114.63,177.56,119.79,179.75,121.79Z" style="fill:#FF725E"></path><path d="M275.78,97.12S259,114.44,259.09,135.71s17,38.45,17,38.45,16.78-17.32,16.69-38.59S275.78,97.12,275.78,97.12Z" style="fill:#FF725E"></path><path d="M251.86,148.46a7.39,7.39,0,0,0,.6-.77c1.22-1.85,2.26-4.54,1.48-6.75a3.93,3.93,0,0,0-5.33-2.42c-2.28,1.08-3.39,4.73-3.63,7.72-.91-.21-1.73-.37-2.44-.49-.3-.67-.6-1.36-.91-2s-.56-1.42-.85-2.14c-.4-1.06-.76-2.18-1.13-3.29,1.33-.6,5.2-2.4,6.64-4s2.92-4.15,2.48-6.45a3.93,3.93,0,0,0-4.9-3.2c-3.19,1-5.06,6.64-5.13,9.61,0,.1,0,.73.12,1.47-.32-1.1-.65-2.19-.93-3.31-.82-3.19-1.56-6.46-2.31-9.73-.15-.69-.32-1.36-.48-2,1.12-.49,5.32-2.41,6.83-4.08s2.93-4.15,2.49-6.45a3.94,3.94,0,0,0-4.91-3.2c-3.18,1-5.05,6.64-5.12,9.61,0,.1.06.85.14,1.69-.44-1.77-.89-3.53-1.39-5.27a69,69,0,0,0-3.14-8.74c.4-.17,5.37-2.32,7.05-4.18,1.49-1.64,2.92-4.15,2.48-6.45a3.93,3.93,0,0,0-4.9-3.2c-3.18,1-5.06,6.64-5.12,9.61,0,.21.24,2.92.36,3.89l0-.1a50.48,50.48,0,0,0-4.57-7.89,69.55,69.55,0,0,0-5-6.41c-1.65-1.9-3.28-3.55-4.73-5-.8-.77-1.54-1.47-2.23-2.11h.07c.06,0-1.56-3.71-1.69-3.93-1.48-2.57-5.87-6.65-9.12-6a3.94,3.94,0,0,0-2.75,5.17c.73,2.23,3.19,3.73,5.29,4.45s6.83.39,8,.28c.71.68,1.46,1.42,2.27,2.24,1.42,1.47,3,3.15,4.62,5.08.42.51.86,1.09,1.3,1.63-.93-.77-2.21-1.8-2.35-1.89-2.5-1.59-8.28-3.19-10.83-1.07a3.92,3.92,0,0,0-.07,5.85c1.67,1.65,4.56,1.84,6.75,1.52s6.37-2.89,7.26-3.46c.95,1.22,1.9,2.5,2.81,3.89a51.12,51.12,0,0,1,4.33,7.89c.07.16.12.33.19.49-.39-.46-2.73-2.81-2.91-3-2.31-1.86-7.87-4.09-10.65-2.26a3.93,3.93,0,0,0-.71,5.81c1.49,1.82,4.33,2.33,6.54,2.25,2.56-.09,7.58-2.63,7.77-2.72a68.08,68.08,0,0,1,2.84,8.52c.57,2.14,1.07,4.34,1.54,6.54-.52-.58-2.69-2.77-2.87-2.91-2.31-1.86-7.87-4.09-10.65-2.26a3.93,3.93,0,0,0-.71,5.81c1.49,1.82,4.33,2.33,6.54,2.25,2.5-.09,7.32-2.5,7.73-2.7.22,1,.43,2,.64,3,.68,3.28,1.35,6.58,2.1,9.81.26,1.12.56,2.21.86,3.31-.82-.85-2.33-2.37-2.47-2.49-2.31-1.85-7.88-4.08-10.65-2.26a3.93,3.93,0,0,0-.71,5.81c1.48,1.82,4.33,2.34,6.54,2.25s6.33-2,7.48-2.58c.5,1.82,1,3.62,1.66,5.36.28.75.52,1.53.83,2.23l.47,1.11-.64-.06s0,1,.05,2.73c-2.44-1.74-6-3.24-8.25-2.18a3.93,3.93,0,0,0-1.58,5.63,5.11,5.11,0,0,0,.51.71,15.35,15.35,0,0,0,3.16,7c.12.15,1.78,1.68,2.65,2.44-.84-.45-1.67-.9-2.53-1.38-1.25-.7-2.54-1.47-3.8-2.21l-1.94-1.23c-.66-.41-1.25-.87-1.89-1.31-.92-.67-1.84-1.4-2.75-2.13.78-1.22,3-4.86,3.33-7s.14-5.08-1.49-6.76a3.94,3.94,0,0,0-5.86,0c-2.13,2.55-.55,8.33,1,10.84,0,.08.44.58.91,1.16-.87-.74-1.75-1.47-2.61-2.25-2.44-2.2-4.86-4.53-7.29-6.84l-1.53-1.44c.66-1,3.11-5,3.45-7.17s.15-5.08-1.49-6.76a3.94,3.94,0,0,0-5.85,0c-2.13,2.55-.56,8.33,1,10.84.06.09.53.68,1.05,1.34-1.33-1.24-2.69-2.46-4.06-3.63a69.83,69.83,0,0,0-7.44-5.56c.24-.36,3.2-4.9,3.57-7.37.34-2.2.15-5.08-1.48-6.76a4,4,0,0,0-5.86,0c-2.13,2.55-.55,8.33,1,10.84.11.18,1.81,2.3,2.45,3l-.09-.06a51.62,51.62,0,0,0-8.16-4.06,69.84,69.84,0,0,0-7.74-2.56c-2.43-.68-4.7-1.15-6.71-1.55-1.08-.21-2.08-.38-3-.53l.06,0s-3.34-2.24-3.57-2.35c-2.66-1.32-8.57-2.31-10.89.07a3.94,3.94,0,0,0,.55,5.83c1.84,1.46,4.72,1.35,6.87.8s5.91-3.46,6.83-4.18c1,.17,2,.37,3.13.61,2,.44,4.24,1,6.65,1.69.64.19,1.32.43,2,.64-1.2-.13-2.84-.28-3-.28-3,0-8.67,1.9-9.63,5.08a3.93,3.93,0,0,0,3.17,4.92c2.3.45,4.82-1,6.47-2.46s3.72-5.92,4.15-6.89c1.46.5,3,1,4.48,1.7a51.25,51.25,0,0,1,8,4.18c.14.1.28.22.43.31-.58-.16-3.83-.84-4.06-.86-3-.28-8.83.93-10.13,4a3.94,3.94,0,0,0,2.61,5.24c2.24.7,4.9-.45,6.7-1.73,2.08-1.49,4.87-6.38,5-6.56a69.42,69.42,0,0,1,7.06,5.54c1.67,1.47,3.29,3,4.9,4.61-.76-.2-3.78-.83-4-.85-3-.27-8.82.94-10.13,4a3.94,3.94,0,0,0,2.61,5.24c2.24.7,4.9-.44,6.7-1.73,2-1.45,4.73-6.13,5-6.52l2.2,2.15c2.38,2.37,4.75,4.75,7.16,7,.84.79,1.69,1.54,2.54,2.29-1.14-.26-3.24-.7-3.43-.71-2.95-.28-8.82.93-10.13,4a3.94,3.94,0,0,0,2.62,5.24c2.24.69,4.89-.45,6.69-1.73s4.17-5.18,4.82-6.28c1.42,1.24,2.86,2.44,4.34,3.55.65.47,1.28,1,1.92,1.4l1.91,1.27c1.33.83,2.57,1.6,3.83,2.34l1.86,1.07c-1.12-.44-2.91-1.1-3.08-1.14-2.88-.72-8.86-.42-10.62,2.41a3.94,3.94,0,0,0,1.79,5.57c2.11,1,4.91.3,6.88-.7,2.18-1.1,5.46-5.16,5.86-5.66,1.53.87,3,1.7,4.43,2.45,3.77,2,7,3.63,9.6,4.82,8.29,7.17,20,8,20,8s.62-14-7.61-23.16A28.65,28.65,0,0,0,251.86,148.46Zm-14.8,13.62c.26-.58,2.24-5,2.38-7.52.46-.08.93-.18,1.38-.28a32.3,32.3,0,0,0,5.14,12.3c-1.51-.72-3.14-1.51-4.87-2.39C239.8,163.53,238.45,162.82,237.06,162.08Z" style="fill:#FF725E"></path><path d="M313,145.78s-14,.43-22.53,9.32S282,178,282,178s14-.43,22.53-9.32S313,145.78,313,145.78Z" style="fill:#FF725E"></path><g style="opacity:0.5"><path d="M222.12,91.64s4.58-3.62,5.76-5.94c1-2,1.72-4.78.69-6.88A3.93,3.93,0,0,0,223,77c-2.83,1.76-3.13,7.74-2.41,10.62C220.65,87.9,222.07,91.68,222.12,91.64Z" style="fill:#fff"></path><path d="M179.75,121.79c.19.18,3.46,2.55,3.47,2.49s1.83-5.55,1.53-8.13c-.26-2.2-1.2-4.94-3.22-6.12a3.92,3.92,0,0,0-5.63,1.58C174.51,114.63,177.56,119.79,179.75,121.79Z" style="fill:#fff"></path><path d="M275.78,97.12S259,114.44,259.09,135.71s17,38.45,17,38.45,16.78-17.32,16.69-38.59S275.78,97.12,275.78,97.12Z" style="fill:#fff"></path><path d="M251.86,148.46a7.39,7.39,0,0,0,.6-.77c1.22-1.85,2.26-4.54,1.48-6.75a3.93,3.93,0,0,0-5.33-2.42c-2.28,1.08-3.39,4.73-3.63,7.72-.91-.21-1.73-.37-2.44-.49-.3-.67-.6-1.36-.91-2s-.56-1.42-.85-2.14c-.4-1.06-.76-2.18-1.13-3.29,1.33-.6,5.2-2.4,6.64-4s2.92-4.15,2.48-6.45a3.93,3.93,0,0,0-4.9-3.2c-3.19,1-5.06,6.64-5.13,9.61,0,.1,0,.73.12,1.47-.32-1.1-.65-2.19-.93-3.31-.82-3.19-1.56-6.46-2.31-9.73-.15-.69-.32-1.36-.48-2,1.12-.49,5.32-2.41,6.83-4.08s2.93-4.15,2.49-6.45a3.94,3.94,0,0,0-4.91-3.2c-3.18,1-5.05,6.64-5.12,9.61,0,.1.06.85.14,1.69-.44-1.77-.89-3.53-1.39-5.27a69,69,0,0,0-3.14-8.74c.4-.17,5.37-2.32,7.05-4.18,1.49-1.64,2.92-4.15,2.48-6.45a3.93,3.93,0,0,0-4.9-3.2c-3.18,1-5.06,6.64-5.12,9.61,0,.21.24,2.92.36,3.89l0-.1a50.48,50.48,0,0,0-4.57-7.89,69.55,69.55,0,0,0-5-6.41c-1.65-1.9-3.28-3.55-4.73-5-.8-.77-1.54-1.47-2.23-2.11h.07c.06,0-1.56-3.71-1.69-3.93-1.48-2.57-5.87-6.65-9.12-6a3.94,3.94,0,0,0-2.75,5.17c.73,2.23,3.19,3.73,5.29,4.45s6.83.39,8,.28c.71.68,1.46,1.42,2.27,2.24,1.42,1.47,3,3.15,4.62,5.08.42.51.86,1.09,1.3,1.63-.93-.77-2.21-1.8-2.35-1.89-2.5-1.59-8.28-3.19-10.83-1.07a3.92,3.92,0,0,0-.07,5.85c1.67,1.65,4.56,1.84,6.75,1.52s6.37-2.89,7.26-3.46c.95,1.22,1.9,2.5,2.81,3.89a51.12,51.12,0,0,1,4.33,7.89c.07.16.12.33.19.49-.39-.46-2.73-2.81-2.91-3-2.31-1.86-7.87-4.09-10.65-2.26a3.93,3.93,0,0,0-.71,5.81c1.49,1.82,4.33,2.33,6.54,2.25,2.56-.09,7.58-2.63,7.77-2.72a68.08,68.08,0,0,1,2.84,8.52c.57,2.14,1.07,4.34,1.54,6.54-.52-.58-2.69-2.77-2.87-2.91-2.31-1.86-7.87-4.09-10.65-2.26a3.93,3.93,0,0,0-.71,5.81c1.49,1.82,4.33,2.33,6.54,2.25,2.5-.09,7.32-2.5,7.73-2.7.22,1,.43,2,.64,3,.68,3.28,1.35,6.58,2.1,9.81.26,1.12.56,2.21.86,3.31-.82-.85-2.33-2.37-2.47-2.49-2.31-1.85-7.88-4.08-10.65-2.26a3.93,3.93,0,0,0-.71,5.81c1.48,1.82,4.33,2.34,6.54,2.25s6.33-2,7.48-2.58c.5,1.82,1,3.62,1.66,5.36.28.75.52,1.53.83,2.23l.47,1.11-.64-.06s0,1,.05,2.73c-2.44-1.74-6-3.24-8.25-2.18a3.93,3.93,0,0,0-1.58,5.63,5.11,5.11,0,0,0,.51.71,15.35,15.35,0,0,0,3.16,7c.12.15,1.78,1.68,2.65,2.44-.84-.45-1.67-.9-2.53-1.38-1.25-.7-2.54-1.47-3.8-2.21l-1.94-1.23c-.66-.41-1.25-.87-1.89-1.31-.92-.67-1.84-1.4-2.75-2.13.78-1.22,3-4.86,3.33-7s.14-5.08-1.49-6.76a3.94,3.94,0,0,0-5.86,0c-2.13,2.55-.55,8.33,1,10.84,0,.08.44.58.91,1.16-.87-.74-1.75-1.47-2.61-2.25-2.44-2.2-4.86-4.53-7.29-6.84l-1.53-1.44c.66-1,3.11-5,3.45-7.17s.15-5.08-1.49-6.76a3.94,3.94,0,0,0-5.85,0c-2.13,2.55-.56,8.33,1,10.84.06.09.53.68,1.05,1.34-1.33-1.24-2.69-2.46-4.06-3.63a69.83,69.83,0,0,0-7.44-5.56c.24-.36,3.2-4.9,3.57-7.37.34-2.2.15-5.08-1.48-6.76a4,4,0,0,0-5.86,0c-2.13,2.55-.55,8.33,1,10.84.11.18,1.81,2.3,2.45,3l-.09-.06a51.62,51.62,0,0,0-8.16-4.06,69.84,69.84,0,0,0-7.74-2.56c-2.43-.68-4.7-1.15-6.71-1.55-1.08-.21-2.08-.38-3-.53l.06,0s-3.34-2.24-3.57-2.35c-2.66-1.32-8.57-2.31-10.89.07a3.94,3.94,0,0,0,.55,5.83c1.84,1.46,4.72,1.35,6.87.8s5.91-3.46,6.83-4.18c1,.17,2,.37,3.13.61,2,.44,4.24,1,6.65,1.69.64.19,1.32.43,2,.64-1.2-.13-2.84-.28-3-.28-3,0-8.67,1.9-9.63,5.08a3.93,3.93,0,0,0,3.17,4.92c2.3.45,4.82-1,6.47-2.46s3.72-5.92,4.15-6.89c1.46.5,3,1,4.48,1.7a51.25,51.25,0,0,1,8,4.18c.14.1.28.22.43.31-.58-.16-3.83-.84-4.06-.86-3-.28-8.83.93-10.13,4a3.94,3.94,0,0,0,2.61,5.24c2.24.7,4.9-.45,6.7-1.73,2.08-1.49,4.87-6.38,5-6.56a69.42,69.42,0,0,1,7.06,5.54c1.67,1.47,3.29,3,4.9,4.61-.76-.2-3.78-.83-4-.85-3-.27-8.82.94-10.13,4a3.94,3.94,0,0,0,2.61,5.24c2.24.7,4.9-.44,6.7-1.73,2-1.45,4.73-6.13,5-6.52l2.2,2.15c2.38,2.37,4.75,4.75,7.16,7,.84.79,1.69,1.54,2.54,2.29-1.14-.26-3.24-.7-3.43-.71-2.95-.28-8.82.93-10.13,4a3.94,3.94,0,0,0,2.62,5.24c2.24.69,4.89-.45,6.69-1.73s4.17-5.18,4.82-6.28c1.42,1.24,2.86,2.44,4.34,3.55.65.47,1.28,1,1.92,1.4l1.91,1.27c1.33.83,2.57,1.6,3.83,2.34l1.86,1.07c-1.12-.44-2.91-1.1-3.08-1.14-2.88-.72-8.86-.42-10.62,2.41a3.94,3.94,0,0,0,1.79,5.57c2.11,1,4.91.3,6.88-.7,2.18-1.1,5.46-5.16,5.86-5.66,1.53.87,3,1.7,4.43,2.45,3.77,2,7,3.63,9.6,4.82,8.29,7.17,20,8,20,8s.62-14-7.61-23.16A28.65,28.65,0,0,0,251.86,148.46Zm-14.8,13.62c.26-.58,2.24-5,2.38-7.52.46-.08.93-.18,1.38-.28a32.3,32.3,0,0,0,5.14,12.3c-1.51-.72-3.14-1.51-4.87-2.39C239.8,163.53,238.45,162.82,237.06,162.08Z" style="fill:#fff"></path><path d="M313,145.78s-14,.43-22.53,9.32S282,178,282,178s14-.43,22.53-9.32S313,145.78,313,145.78Z" style="fill:#fff"></path></g><polygon points="276.47 154.79 290.19 142.45 289.61 141.79 276.46 153.61 276.39 137.44 276.46 137.49 288.07 120.51 287.35 120.01 276.38 136.04 276.22 97.12 275.34 97.13 275.45 123.54 266.71 115.98 266.14 116.64 275.46 124.71 275.54 143.59 262.29 131.88 261.71 132.53 275.54 144.77 275.62 161.97 265.66 154.16 265.12 154.85 275.62 163.09 275.67 174.16 276.55 174.16 276.46 154.78 276.47 154.79" style="fill:#fff"></polygon><polygon points="263.82 159.55 262.95 159.45 261.84 169.22 255.95 162.64 255.96 162.64 254.46 150.81 253.59 150.92 254.93 161.5 240.28 145.12 239.62 145.71 249.56 156.82 243.27 156.9 243.28 157.78 250.34 157.69 257.31 165.48 247.47 165.49 247.47 166.37 258.1 166.36 264.43 173.44 257.49 173.86 257.55 174.74 265.18 174.28 269.4 179 270.06 178.41 262.63 170.1 263.82 159.55" style="fill:#fff"></polygon><polygon points="296.99 163.03 308.67 160.66 308.5 159.8 298.05 161.92 313.29 146.09 312.65 145.48 302.31 156.22 301.77 149.95 300.89 150.03 301.5 157.06 294.25 164.59 293.51 154.78 292.63 154.85 293.43 165.44 286.84 172.29 285.91 165.4 285.04 165.52 286.06 173.1 281.67 177.66 282.31 178.27 290.04 170.24 300.65 170.65 300.69 169.77 290.86 169.39 296.99 163.02 296.99 163.03" style="fill:#fff"></polygon></g><g id="freepik--Grade--inject-33"><path d="M162.58,298.69c.79,3.93,10.23,5.51,10.23,5.51l7-4c2.93,24.6,5.53,44.68,6.4,46.43,2.36,4.72,19.67-1.57,21.24-9.44.64-3.18-2.46-24.63-6.37-49.05l24.46-13.88s1.07-3.51-6.54-2.15c-2.66.48-10.42,3.37-19.36,7.11-5.5-33.7-11.86-69.46-11.86-69.46s83.38,90.46,87.32,90.46,9.44-.78,7.08-7.86-94.4-95.18-94.4-95.18-15.73-.79-18.87,6.29c0,0,4.91,45.52,9.55,85.24C169.25,293.2,162.28,297.19,162.58,298.69Z" style="fill:#263238"></path><path d="M348.56,275.5a82.53,82.53,0,0,0-1.21-12.14,83.56,83.56,0,0,0-7.59-23.09,84.3,84.3,0,0,0-6.09-10.41,92.57,92.57,0,0,0-7.3-9.46,97.41,97.41,0,0,0-8.29-8.46A125,125,0,0,0,299.36,198c-26.46-16.07-57-23.44-87.24-23a143.07,143.07,0,0,0-22.53,2.42,107.24,107.24,0,0,0-21.71,6.42,91.12,91.12,0,0,0-19.53,11.21,99.25,99.25,0,0,0-16.2,15.24l0,0a.5.5,0,0,0,0,.68.5.5,0,0,0,.71,0,97.24,97.24,0,0,1,16.75-14,89,89,0,0,1,19.42-9.93c13.73-5,28.44-6.89,43-6.75a164.14,164.14,0,0,1,43.2,6.46,152,152,0,0,1,39.83,17.82c12.23,7.89,23.26,17.87,31.26,30a75.5,75.5,0,0,1,5.36,9.47,74.59,74.59,0,0,1,6.49,20.67,74.2,74.2,0,0,1,.93,10.83,85.56,85.56,0,0,1-.58,10.85c-.27,1.79-.52,3.58-.87,5.36l-.61,2.64-.3,1.32-.39,1.3a72.59,72.59,0,0,1-9.09,19.63c-8,12.1-19.37,21.79-31.95,29a133.72,133.72,0,0,1-40.83,14.94,163,163,0,0,1-43.54,2.5c-1.83-.08-3.64-.33-5.45-.49-.91-.1-1.82-.18-2.72-.29l-2.7-.41c-1.8-.3-3.61-.5-5.39-.88L189.38,360a27,27,0,0,1-2.65-.67l-2.63-.73c-1.76-.49-3.52-.95-5.23-1.58l-5.17-1.77-5.07-2.05c-.84-.35-1.69-.68-2.52-1.05L163.64,351c-1.64-.8-3.31-1.53-4.92-2.38-3.19-1.77-6.44-3.43-9.48-5.45l-2.31-1.45-1.16-.73-1.11-.79L140.21,337c-1.49-1.06-2.86-2.27-4.29-3.4l-2.12-1.72c-.72-.56-1.36-1.22-2-1.82l-4-3.7L124,322.39c-.62-.67-1.27-1.3-1.86-2l-1.75-2.1-1.75-2.1c-.57-.71-1.19-1.38-1.69-2.14l-3.18-4.44-.8-1.11-.71-1.17L110.8,305a108.2,108.2,0,0,1-5.17-9.61,78.9,78.9,0,0,1-6.31-20.8,72.22,72.22,0,0,1,.11-21.72A81.08,81.08,0,0,1,105.7,232a101.27,101.27,0,0,1,11.19-18.74,132.14,132.14,0,0,1,31.81-29.83.49.49,0,0,0,.15-.67.5.5,0,0,0-.68-.17h0A143.65,143.65,0,0,0,130,195.38a122.92,122.92,0,0,0-15.81,15.88,99.61,99.61,0,0,0-12.45,19,85.7,85.7,0,0,0-7.51,21.83,77.14,77.14,0,0,0-.84,23.41,85.43,85.43,0,0,0,6.14,22.72,109.63,109.63,0,0,0,11.55,20.29c.53.82,1.17,1.55,1.76,2.32l1.82,2.29,1.81,2.28c.62.75,1.3,1.45,1.94,2.17l3.94,4.3,4.19,4c.71.66,1.38,1.37,2.12,2l2.22,1.88c1.49,1.23,2.92,2.55,4.47,3.71L140,347l1.17.87,1.2.8,2.43,1.6c3.18,2.23,6.62,4,10,6,1.7.92,3.46,1.73,5.19,2.61l2.61,1.28c.88.41,1.78.77,2.67,1.15l5.36,2.26,5.49,2c1.82.7,3.69,1.22,5.56,1.77l2.8.82c.93.28,1.87.55,2.83.75l5.7,1.31c1.91.44,3.86.69,5.79,1l2.9.48c1,.14,1.91.23,2.86.35,1.91.2,3.82.49,5.74.61a157.43,157.43,0,0,0,23.09.42,170.44,170.44,0,0,0,23-2.75,143,143,0,0,0,43.93-15.83c13.65-7.89,26.12-18.62,35.12-32.3a82.28,82.28,0,0,0,10.19-22.35l.43-1.48.35-1.51.67-3c.39-2,.67-4.08,1-6.11A86,86,0,0,0,348.56,275.5Z" style="fill:#263238"></path><path d="M210.91,209.76a3.49,3.49,0,0,0,3.14,2,3.38,3.38,0,0,0,1.54-.36l14-6.87,9.17,7.8a3.5,3.5,0,1,0,4.53-5.33l-6.86-5.84,7.73-3.81A3.5,3.5,0,1,0,241,191l-10.45,5.15-7.34-6.25a3.5,3.5,0,0,0-4.54,5.33l5,4.29-11.24,5.53A3.5,3.5,0,0,0,210.91,209.76Z" style="fill:#263238"></path></g></svg>